%FSLAX45Y45*%
G04 Gerber Fmt 4.5, Leading zero omitted, Abs format (unit mm)*
G04 Created by KiCad (PCBNEW (5.1.10)-1) date 2022-11-07 23:21:50*
%MOMM*%
%LPD*%
G01*
G04 APERTURE LIST*
%TA.AperFunction,Profile*%
%ADD10C,0.050000*%
%TD*%
%ADD11C,0.200000*%
%ADD12C,0.300000*%
G04 APERTURE END LIST*
D10*
X11201400Y-9321800D02*
X14909800Y-9321800D01*
X15265400Y-8636000D02*
X15875000Y-8636000D01*
X15087600Y-9144000D02*
X15087600Y-8813800D01*
X16052800Y-8458200D02*
X16052800Y-7747000D01*
X15252700Y-7569200D02*
X15875000Y-7569200D01*
X15074900Y-7391400D02*
X15074900Y-7289800D01*
X11201400Y-7112000D02*
X14897100Y-7112000D01*
X16052800Y-8458200D02*
G75*
G02*
X15875000Y-8636000I-177800J0D01*
G01*
X15875000Y-7569200D02*
G75*
G02*
X16052800Y-7747000I0J-177800D01*
G01*
X15252700Y-7569200D02*
G75*
G02*
X15074900Y-7391400I0J177800D01*
G01*
X15087600Y-8813800D02*
G75*
G02*
X15265400Y-8636000I177800J0D01*
G01*
X14897100Y-7112000D02*
G75*
G02*
X15074900Y-7289800I0J-177800D01*
G01*
X11023600Y-9144000D02*
X11023600Y-7289800D01*
X11023600Y-7289800D02*
G75*
G02*
X11201400Y-7112000I177800J0D01*
G01*
X15087600Y-9144000D02*
G75*
G02*
X14909800Y-9321800I-177800J0D01*
G01*
X11201400Y-9321800D02*
G75*
G02*
X11023600Y-9144000I0J177800D01*
G01*
D11*
X12146600Y-8628700D02*
X12186600Y-8668700D01*
X12186600Y-8628700D02*
X12146600Y-8668700D01*
X12286300Y-8171500D02*
X12326300Y-8211500D01*
X12326300Y-8171500D02*
X12286300Y-8211500D01*
X12299000Y-8044500D02*
X12339000Y-8084500D01*
X12339000Y-8044500D02*
X12299000Y-8084500D01*
X12311700Y-8285800D02*
X12351700Y-8325800D01*
X12351700Y-8285800D02*
X12311700Y-8325800D01*
X12629200Y-8958900D02*
X12669200Y-8998900D01*
X12669200Y-8958900D02*
X12629200Y-8998900D01*
X12781600Y-8139750D02*
X12821600Y-8179750D01*
X12821600Y-8139750D02*
X12781600Y-8179750D01*
X12787950Y-8304850D02*
X12827950Y-8344850D01*
X12827950Y-8304850D02*
X12787950Y-8344850D01*
X12807000Y-7320600D02*
X12847000Y-7360600D01*
X12847000Y-7320600D02*
X12807000Y-7360600D01*
X12854100Y-7987500D02*
X12894100Y-8027500D01*
X12894100Y-7987500D02*
X12854100Y-8027500D01*
X12857800Y-8565200D02*
X12897800Y-8605200D01*
X12897800Y-8565200D02*
X12857800Y-8605200D01*
X12959400Y-8590600D02*
X12999400Y-8630600D01*
X12999400Y-8590600D02*
X12959400Y-8630600D01*
X13035600Y-8844600D02*
X13075600Y-8884600D01*
X13075600Y-8844600D02*
X13035600Y-8884600D01*
X13137200Y-8844600D02*
X13177200Y-8884600D01*
X13177200Y-8844600D02*
X13137200Y-8884600D01*
X13209066Y-8159643D02*
X13249066Y-8199643D01*
X13249066Y-8159643D02*
X13209066Y-8199643D01*
X13461050Y-8355650D02*
X13501050Y-8395650D01*
X13501050Y-8355650D02*
X13461050Y-8395650D01*
X13498636Y-8472325D02*
X13538636Y-8512325D01*
X13538636Y-8472325D02*
X13498636Y-8512325D01*
X13511700Y-7868912D02*
X13551700Y-7908912D01*
X13551700Y-7868912D02*
X13511700Y-7908912D01*
X13570920Y-8585153D02*
X13610920Y-8625153D01*
X13610920Y-8585153D02*
X13570920Y-8625153D01*
X13653975Y-8009360D02*
X13693975Y-8049360D01*
X13693975Y-8009360D02*
X13653975Y-8049360D01*
X13816923Y-7784000D02*
X13856923Y-7824000D01*
X13856923Y-7784000D02*
X13816923Y-7824000D01*
X13897571Y-8257561D02*
X13937571Y-8297561D01*
X13937571Y-8257561D02*
X13897571Y-8297561D01*
X14038900Y-7854000D02*
X14078900Y-7894000D01*
X14078900Y-7854000D02*
X14038900Y-7894000D01*
X14064300Y-7739700D02*
X14104300Y-7779700D01*
X14104300Y-7739700D02*
X14064300Y-7779700D01*
X14089700Y-7981000D02*
X14129700Y-8021000D01*
X14129700Y-7981000D02*
X14089700Y-8021000D01*
X14254800Y-7739700D02*
X14294800Y-7779700D01*
X14294800Y-7739700D02*
X14254800Y-7779700D01*
X14585000Y-7968300D02*
X14625000Y-8008300D01*
X14625000Y-7968300D02*
X14585000Y-8008300D01*
X14673900Y-8171500D02*
X14713900Y-8211500D01*
X14713900Y-8171500D02*
X14673900Y-8211500D01*
X15137450Y-7786050D02*
X15177450Y-7826050D01*
X15177450Y-7786050D02*
X15137450Y-7826050D01*
X15137450Y-7871050D02*
X15177450Y-7911050D01*
X15177450Y-7871050D02*
X15137450Y-7911050D01*
X15137450Y-7956050D02*
X15177450Y-7996050D01*
X15177450Y-7956050D02*
X15137450Y-7996050D01*
X15137450Y-8041050D02*
X15177450Y-8081050D01*
X15177450Y-8041050D02*
X15137450Y-8081050D01*
X15137450Y-8126050D02*
X15177450Y-8166050D01*
X15177450Y-8126050D02*
X15137450Y-8166050D01*
X15137450Y-8211050D02*
X15177450Y-8251050D01*
X15177450Y-8211050D02*
X15137450Y-8251050D01*
X15137450Y-8296050D02*
X15177450Y-8336050D01*
X15177450Y-8296050D02*
X15137450Y-8336050D01*
X15137450Y-8381050D02*
X15177450Y-8421050D01*
X15177450Y-8381050D02*
X15137450Y-8421050D01*
X15272450Y-7786050D02*
X15312450Y-7826050D01*
X15312450Y-7786050D02*
X15272450Y-7826050D01*
X15272450Y-7871050D02*
X15312450Y-7911050D01*
X15312450Y-7871050D02*
X15272450Y-7911050D01*
X15272450Y-7956050D02*
X15312450Y-7996050D01*
X15312450Y-7956050D02*
X15272450Y-7996050D01*
X15272450Y-8041050D02*
X15312450Y-8081050D01*
X15312450Y-8041050D02*
X15272450Y-8081050D01*
X15272450Y-8126050D02*
X15312450Y-8166050D01*
X15312450Y-8126050D02*
X15272450Y-8166050D01*
X15272450Y-8211050D02*
X15312450Y-8251050D01*
X15312450Y-8211050D02*
X15272450Y-8251050D01*
X15272450Y-8296050D02*
X15312450Y-8336050D01*
X15312450Y-8296050D02*
X15272450Y-8336050D01*
X15272450Y-8381050D02*
X15312450Y-8421050D01*
X15312450Y-8381050D02*
X15272450Y-8421050D01*
X15285450Y-7671050D02*
G75*
G03*
X15285450Y-7671050I-30000J0D01*
G01*
X15180450Y-7691050D02*
X15330450Y-7691050D01*
X15180450Y-7651050D02*
X15330450Y-7651050D01*
X15330450Y-7691050D02*
G75*
G03*
X15330450Y-7651050I0J20000D01*
G01*
X15180450Y-7651050D02*
G75*
G03*
X15180450Y-7691050I0J-20000D01*
G01*
X15285450Y-8536050D02*
G75*
G03*
X15285450Y-8536050I-30000J0D01*
G01*
X15180450Y-8556050D02*
X15330450Y-8556050D01*
X15180450Y-8516050D02*
X15330450Y-8516050D01*
X15330450Y-8556050D02*
G75*
G03*
X15330450Y-8516050I0J20000D01*
G01*
X15180450Y-8516050D02*
G75*
G03*
X15180450Y-8556050I0J-20000D01*
G01*
X15623450Y-7671050D02*
G75*
G03*
X15623450Y-7671050I-30000J0D01*
G01*
X15553450Y-7691050D02*
X15633450Y-7691050D01*
X15553450Y-7651050D02*
X15633450Y-7651050D01*
X15633450Y-7691050D02*
G75*
G03*
X15633450Y-7651050I0J20000D01*
G01*
X15553450Y-7651050D02*
G75*
G03*
X15553450Y-7691050I0J-20000D01*
G01*
X15623450Y-8536050D02*
G75*
G03*
X15623450Y-8536050I-30000J0D01*
G01*
X15553450Y-8556050D02*
X15633450Y-8556050D01*
X15553450Y-8516050D02*
X15633450Y-8516050D01*
X15633450Y-8556050D02*
G75*
G03*
X15633450Y-8516050I0J20000D01*
G01*
X15553450Y-8516050D02*
G75*
G03*
X15553450Y-8556050I0J-20000D01*
G01*
X11620500Y-7925600D02*
X11620500Y-8025600D01*
X11570500Y-7975600D02*
X11670500Y-7975600D01*
X11620500Y-8179600D02*
X11620500Y-8279600D01*
X11570500Y-8229600D02*
X11670500Y-8229600D01*
X11620500Y-8433600D02*
X11620500Y-8533600D01*
X11570500Y-8483600D02*
X11670500Y-8483600D01*
X13144500Y-7379500D02*
X13144500Y-7479500D01*
X13094500Y-7429500D02*
X13194500Y-7429500D01*
X13398500Y-7379500D02*
X13398500Y-7479500D01*
X13348500Y-7429500D02*
X13448500Y-7429500D01*
X13652500Y-7379500D02*
X13652500Y-7479500D01*
X13602500Y-7429500D02*
X13702500Y-7429500D01*
X13906500Y-7379500D02*
X13906500Y-7479500D01*
X13856500Y-7429500D02*
X13956500Y-7429500D01*
X11371382Y-7443682D02*
X11371382Y-7288117D01*
X11215817Y-7288117D01*
X11215817Y-7443682D01*
X11371382Y-7443682D01*
X11371382Y-9123683D02*
X11371382Y-8968118D01*
X11215817Y-8968118D01*
X11215817Y-9123683D01*
X11371382Y-9123683D01*
X14851382Y-7443682D02*
X14851382Y-7288117D01*
X14695817Y-7288117D01*
X14695817Y-7443682D01*
X14851382Y-7443682D01*
X14851382Y-9123683D02*
X14851382Y-8968118D01*
X14695817Y-8968118D01*
X14695817Y-9123683D01*
X14851382Y-9123683D01*
D12*
X11307528Y-9790014D02*
X11307528Y-9490014D01*
X11378957Y-9490014D01*
X11421814Y-9504300D01*
X11450386Y-9532872D01*
X11464671Y-9561443D01*
X11478957Y-9618586D01*
X11478957Y-9661443D01*
X11464671Y-9718586D01*
X11450386Y-9747157D01*
X11421814Y-9775729D01*
X11378957Y-9790014D01*
X11307528Y-9790014D01*
X11607528Y-9790014D02*
X11607528Y-9590014D01*
X11607528Y-9647157D02*
X11621814Y-9618586D01*
X11636100Y-9604300D01*
X11664671Y-9590014D01*
X11693243Y-9590014D01*
X11793243Y-9790014D02*
X11793243Y-9590014D01*
X11793243Y-9490014D02*
X11778957Y-9504300D01*
X11793243Y-9518586D01*
X11807528Y-9504300D01*
X11793243Y-9490014D01*
X11793243Y-9518586D01*
X11978957Y-9790014D02*
X11950386Y-9775729D01*
X11936100Y-9747157D01*
X11936100Y-9490014D01*
X12136100Y-9790014D02*
X12107528Y-9775729D01*
X12093243Y-9747157D01*
X12093243Y-9490014D01*
X12478957Y-9790014D02*
X12478957Y-9490014D01*
X12578957Y-9704300D01*
X12678957Y-9490014D01*
X12678957Y-9790014D01*
X12950386Y-9790014D02*
X12950386Y-9632872D01*
X12936100Y-9604300D01*
X12907528Y-9590014D01*
X12850386Y-9590014D01*
X12821814Y-9604300D01*
X12950386Y-9775729D02*
X12921814Y-9790014D01*
X12850386Y-9790014D01*
X12821814Y-9775729D01*
X12807528Y-9747157D01*
X12807528Y-9718586D01*
X12821814Y-9690014D01*
X12850386Y-9675729D01*
X12921814Y-9675729D01*
X12950386Y-9661443D01*
X13093243Y-9590014D02*
X13093243Y-9890014D01*
X13093243Y-9604300D02*
X13121814Y-9590014D01*
X13178957Y-9590014D01*
X13207528Y-9604300D01*
X13221814Y-9618586D01*
X13236100Y-9647157D01*
X13236100Y-9732872D01*
X13221814Y-9761443D01*
X13207528Y-9775729D01*
X13178957Y-9790014D01*
X13121814Y-9790014D01*
X13093243Y-9775729D01*
X13364671Y-9761443D02*
X13378957Y-9775729D01*
X13364671Y-9790014D01*
X13350386Y-9775729D01*
X13364671Y-9761443D01*
X13364671Y-9790014D01*
X13364671Y-9604300D02*
X13378957Y-9618586D01*
X13364671Y-9632872D01*
X13350386Y-9618586D01*
X13364671Y-9604300D01*
X13364671Y-9632872D01*
X10981100Y-10264300D02*
X11021100Y-10304300D01*
X11021100Y-10264300D02*
X10981100Y-10304300D01*
X11364671Y-10120014D02*
X11393243Y-10120014D01*
X11421814Y-10134300D01*
X11436100Y-10148586D01*
X11450386Y-10177157D01*
X11464671Y-10234300D01*
X11464671Y-10305729D01*
X11450386Y-10362872D01*
X11436100Y-10391443D01*
X11421814Y-10405729D01*
X11393243Y-10420014D01*
X11364671Y-10420014D01*
X11336100Y-10405729D01*
X11321814Y-10391443D01*
X11307528Y-10362872D01*
X11293243Y-10305729D01*
X11293243Y-10234300D01*
X11307528Y-10177157D01*
X11321814Y-10148586D01*
X11336100Y-10134300D01*
X11364671Y-10120014D01*
X11593243Y-10391443D02*
X11607528Y-10405729D01*
X11593243Y-10420014D01*
X11578957Y-10405729D01*
X11593243Y-10391443D01*
X11593243Y-10420014D01*
X11864671Y-10220014D02*
X11864671Y-10420014D01*
X11793243Y-10105729D02*
X11721814Y-10320014D01*
X11907528Y-10320014D01*
X12078957Y-10120014D02*
X12107528Y-10120014D01*
X12136100Y-10134300D01*
X12150386Y-10148586D01*
X12164671Y-10177157D01*
X12178957Y-10234300D01*
X12178957Y-10305729D01*
X12164671Y-10362872D01*
X12150386Y-10391443D01*
X12136100Y-10405729D01*
X12107528Y-10420014D01*
X12078957Y-10420014D01*
X12050386Y-10405729D01*
X12036100Y-10391443D01*
X12021814Y-10362872D01*
X12007528Y-10305729D01*
X12007528Y-10234300D01*
X12021814Y-10177157D01*
X12036100Y-10148586D01*
X12050386Y-10134300D01*
X12078957Y-10120014D01*
X12364671Y-10120014D02*
X12393243Y-10120014D01*
X12421814Y-10134300D01*
X12436100Y-10148586D01*
X12450386Y-10177157D01*
X12464671Y-10234300D01*
X12464671Y-10305729D01*
X12450386Y-10362872D01*
X12436100Y-10391443D01*
X12421814Y-10405729D01*
X12393243Y-10420014D01*
X12364671Y-10420014D01*
X12336100Y-10405729D01*
X12321814Y-10391443D01*
X12307528Y-10362872D01*
X12293243Y-10305729D01*
X12293243Y-10234300D01*
X12307528Y-10177157D01*
X12321814Y-10148586D01*
X12336100Y-10134300D01*
X12364671Y-10120014D01*
X12593243Y-10420014D02*
X12593243Y-10220014D01*
X12593243Y-10248586D02*
X12607528Y-10234300D01*
X12636100Y-10220014D01*
X12678957Y-10220014D01*
X12707528Y-10234300D01*
X12721814Y-10262872D01*
X12721814Y-10420014D01*
X12721814Y-10262872D02*
X12736100Y-10234300D01*
X12764671Y-10220014D01*
X12807528Y-10220014D01*
X12836100Y-10234300D01*
X12850386Y-10262872D01*
X12850386Y-10420014D01*
X12993243Y-10420014D02*
X12993243Y-10220014D01*
X12993243Y-10248586D02*
X13007528Y-10234300D01*
X13036100Y-10220014D01*
X13078957Y-10220014D01*
X13107528Y-10234300D01*
X13121814Y-10262872D01*
X13121814Y-10420014D01*
X13121814Y-10262872D02*
X13136100Y-10234300D01*
X13164671Y-10220014D01*
X13207528Y-10220014D01*
X13236100Y-10234300D01*
X13250386Y-10262872D01*
X13250386Y-10420014D01*
X13836100Y-10105729D02*
X13578957Y-10491443D01*
X14221814Y-10120014D02*
X14250386Y-10120014D01*
X14278957Y-10134300D01*
X14293243Y-10148586D01*
X14307528Y-10177157D01*
X14321814Y-10234300D01*
X14321814Y-10305729D01*
X14307528Y-10362872D01*
X14293243Y-10391443D01*
X14278957Y-10405729D01*
X14250386Y-10420014D01*
X14221814Y-10420014D01*
X14193243Y-10405729D01*
X14178957Y-10391443D01*
X14164671Y-10362872D01*
X14150386Y-10305729D01*
X14150386Y-10234300D01*
X14164671Y-10177157D01*
X14178957Y-10148586D01*
X14193243Y-10134300D01*
X14221814Y-10120014D01*
X14450386Y-10391443D02*
X14464671Y-10405729D01*
X14450386Y-10420014D01*
X14436100Y-10405729D01*
X14450386Y-10391443D01*
X14450386Y-10420014D01*
X14650386Y-10120014D02*
X14678957Y-10120014D01*
X14707528Y-10134300D01*
X14721814Y-10148586D01*
X14736100Y-10177157D01*
X14750386Y-10234300D01*
X14750386Y-10305729D01*
X14736100Y-10362872D01*
X14721814Y-10391443D01*
X14707528Y-10405729D01*
X14678957Y-10420014D01*
X14650386Y-10420014D01*
X14621814Y-10405729D01*
X14607528Y-10391443D01*
X14593243Y-10362872D01*
X14578957Y-10305729D01*
X14578957Y-10234300D01*
X14593243Y-10177157D01*
X14607528Y-10148586D01*
X14621814Y-10134300D01*
X14650386Y-10120014D01*
X15036100Y-10420014D02*
X14864671Y-10420014D01*
X14950386Y-10420014D02*
X14950386Y-10120014D01*
X14921814Y-10162872D01*
X14893243Y-10191443D01*
X14864671Y-10205729D01*
X15307528Y-10120014D02*
X15164671Y-10120014D01*
X15150386Y-10262872D01*
X15164671Y-10248586D01*
X15193243Y-10234300D01*
X15264671Y-10234300D01*
X15293243Y-10248586D01*
X15307528Y-10262872D01*
X15321814Y-10291443D01*
X15321814Y-10362872D01*
X15307528Y-10391443D01*
X15293243Y-10405729D01*
X15264671Y-10420014D01*
X15193243Y-10420014D01*
X15164671Y-10405729D01*
X15150386Y-10391443D01*
X15421814Y-10120014D02*
X15621814Y-10120014D01*
X15493243Y-10420014D01*
X15721814Y-10120014D02*
X15721814Y-10177157D01*
X15836100Y-10120014D02*
X15836100Y-10177157D01*
X16278957Y-10534300D02*
X16264671Y-10520014D01*
X16236100Y-10477157D01*
X16221814Y-10448586D01*
X16207528Y-10405729D01*
X16193243Y-10334300D01*
X16193243Y-10277157D01*
X16207528Y-10205729D01*
X16221814Y-10162872D01*
X16236100Y-10134300D01*
X16264671Y-10091443D01*
X16278957Y-10077157D01*
X16521814Y-10220014D02*
X16521814Y-10420014D01*
X16450386Y-10105729D02*
X16378957Y-10320014D01*
X16564671Y-10320014D01*
X16650386Y-10120014D02*
X16836100Y-10120014D01*
X16736100Y-10234300D01*
X16778957Y-10234300D01*
X16807528Y-10248586D01*
X16821814Y-10262872D01*
X16836100Y-10291443D01*
X16836100Y-10362872D01*
X16821814Y-10391443D01*
X16807528Y-10405729D01*
X16778957Y-10420014D01*
X16693243Y-10420014D01*
X16664671Y-10405729D01*
X16650386Y-10391443D01*
X17193243Y-10420014D02*
X17193243Y-10120014D01*
X17321814Y-10420014D02*
X17321814Y-10262872D01*
X17307528Y-10234300D01*
X17278957Y-10220014D01*
X17236100Y-10220014D01*
X17207528Y-10234300D01*
X17193243Y-10248586D01*
X17507528Y-10420014D02*
X17478957Y-10405729D01*
X17464671Y-10391443D01*
X17450386Y-10362872D01*
X17450386Y-10277157D01*
X17464671Y-10248586D01*
X17478957Y-10234300D01*
X17507528Y-10220014D01*
X17550386Y-10220014D01*
X17578957Y-10234300D01*
X17593243Y-10248586D01*
X17607528Y-10277157D01*
X17607528Y-10362872D01*
X17593243Y-10391443D01*
X17578957Y-10405729D01*
X17550386Y-10420014D01*
X17507528Y-10420014D01*
X17778957Y-10420014D02*
X17750386Y-10405729D01*
X17736100Y-10377157D01*
X17736100Y-10120014D01*
X18007528Y-10405729D02*
X17978957Y-10420014D01*
X17921814Y-10420014D01*
X17893243Y-10405729D01*
X17878957Y-10377157D01*
X17878957Y-10262872D01*
X17893243Y-10234300D01*
X17921814Y-10220014D01*
X17978957Y-10220014D01*
X18007528Y-10234300D01*
X18021814Y-10262872D01*
X18021814Y-10291443D01*
X17878957Y-10320014D01*
X18136100Y-10405729D02*
X18164671Y-10420014D01*
X18221814Y-10420014D01*
X18250386Y-10405729D01*
X18264671Y-10377157D01*
X18264671Y-10362872D01*
X18250386Y-10334300D01*
X18221814Y-10320014D01*
X18178957Y-10320014D01*
X18150386Y-10305729D01*
X18136100Y-10277157D01*
X18136100Y-10262872D01*
X18150386Y-10234300D01*
X18178957Y-10220014D01*
X18221814Y-10220014D01*
X18250386Y-10234300D01*
X18364671Y-10534300D02*
X18378957Y-10520014D01*
X18407528Y-10477157D01*
X18421814Y-10448586D01*
X18436100Y-10405729D01*
X18450386Y-10334300D01*
X18450386Y-10277157D01*
X18436100Y-10205729D01*
X18421814Y-10162872D01*
X18407528Y-10134300D01*
X18378957Y-10091443D01*
X18364671Y-10077157D01*
X11021100Y-10680300D02*
G75*
G03*
X11021100Y-10680300I-30000J0D01*
G01*
X11364671Y-10516014D02*
X11393243Y-10516014D01*
X11421814Y-10530300D01*
X11436100Y-10544586D01*
X11450386Y-10573157D01*
X11464671Y-10630300D01*
X11464671Y-10701729D01*
X11450386Y-10758872D01*
X11436100Y-10787443D01*
X11421814Y-10801729D01*
X11393243Y-10816014D01*
X11364671Y-10816014D01*
X11336100Y-10801729D01*
X11321814Y-10787443D01*
X11307528Y-10758872D01*
X11293243Y-10701729D01*
X11293243Y-10630300D01*
X11307528Y-10573157D01*
X11321814Y-10544586D01*
X11336100Y-10530300D01*
X11364671Y-10516014D01*
X11593243Y-10787443D02*
X11607528Y-10801729D01*
X11593243Y-10816014D01*
X11578957Y-10801729D01*
X11593243Y-10787443D01*
X11593243Y-10816014D01*
X11864671Y-10516014D02*
X11807528Y-10516014D01*
X11778957Y-10530300D01*
X11764671Y-10544586D01*
X11736100Y-10587443D01*
X11721814Y-10644586D01*
X11721814Y-10758872D01*
X11736100Y-10787443D01*
X11750386Y-10801729D01*
X11778957Y-10816014D01*
X11836100Y-10816014D01*
X11864671Y-10801729D01*
X11878957Y-10787443D01*
X11893243Y-10758872D01*
X11893243Y-10687443D01*
X11878957Y-10658872D01*
X11864671Y-10644586D01*
X11836100Y-10630300D01*
X11778957Y-10630300D01*
X11750386Y-10644586D01*
X11736100Y-10658872D01*
X11721814Y-10687443D01*
X12078957Y-10516014D02*
X12107528Y-10516014D01*
X12136100Y-10530300D01*
X12150386Y-10544586D01*
X12164671Y-10573157D01*
X12178957Y-10630300D01*
X12178957Y-10701729D01*
X12164671Y-10758872D01*
X12150386Y-10787443D01*
X12136100Y-10801729D01*
X12107528Y-10816014D01*
X12078957Y-10816014D01*
X12050386Y-10801729D01*
X12036100Y-10787443D01*
X12021814Y-10758872D01*
X12007528Y-10701729D01*
X12007528Y-10630300D01*
X12021814Y-10573157D01*
X12036100Y-10544586D01*
X12050386Y-10530300D01*
X12078957Y-10516014D01*
X12364671Y-10516014D02*
X12393243Y-10516014D01*
X12421814Y-10530300D01*
X12436100Y-10544586D01*
X12450386Y-10573157D01*
X12464671Y-10630300D01*
X12464671Y-10701729D01*
X12450386Y-10758872D01*
X12436100Y-10787443D01*
X12421814Y-10801729D01*
X12393243Y-10816014D01*
X12364671Y-10816014D01*
X12336100Y-10801729D01*
X12321814Y-10787443D01*
X12307528Y-10758872D01*
X12293243Y-10701729D01*
X12293243Y-10630300D01*
X12307528Y-10573157D01*
X12321814Y-10544586D01*
X12336100Y-10530300D01*
X12364671Y-10516014D01*
X12593243Y-10816014D02*
X12593243Y-10616014D01*
X12593243Y-10644586D02*
X12607528Y-10630300D01*
X12636100Y-10616014D01*
X12678957Y-10616014D01*
X12707528Y-10630300D01*
X12721814Y-10658872D01*
X12721814Y-10816014D01*
X12721814Y-10658872D02*
X12736100Y-10630300D01*
X12764671Y-10616014D01*
X12807528Y-10616014D01*
X12836100Y-10630300D01*
X12850386Y-10658872D01*
X12850386Y-10816014D01*
X12993243Y-10816014D02*
X12993243Y-10616014D01*
X12993243Y-10644586D02*
X13007528Y-10630300D01*
X13036100Y-10616014D01*
X13078957Y-10616014D01*
X13107528Y-10630300D01*
X13121814Y-10658872D01*
X13121814Y-10816014D01*
X13121814Y-10658872D02*
X13136100Y-10630300D01*
X13164671Y-10616014D01*
X13207528Y-10616014D01*
X13236100Y-10630300D01*
X13250386Y-10658872D01*
X13250386Y-10816014D01*
X13836100Y-10501729D02*
X13578957Y-10887443D01*
X14221814Y-10516014D02*
X14250386Y-10516014D01*
X14278957Y-10530300D01*
X14293243Y-10544586D01*
X14307528Y-10573157D01*
X14321814Y-10630300D01*
X14321814Y-10701729D01*
X14307528Y-10758872D01*
X14293243Y-10787443D01*
X14278957Y-10801729D01*
X14250386Y-10816014D01*
X14221814Y-10816014D01*
X14193243Y-10801729D01*
X14178957Y-10787443D01*
X14164671Y-10758872D01*
X14150386Y-10701729D01*
X14150386Y-10630300D01*
X14164671Y-10573157D01*
X14178957Y-10544586D01*
X14193243Y-10530300D01*
X14221814Y-10516014D01*
X14450386Y-10787443D02*
X14464671Y-10801729D01*
X14450386Y-10816014D01*
X14436100Y-10801729D01*
X14450386Y-10787443D01*
X14450386Y-10816014D01*
X14650386Y-10516014D02*
X14678957Y-10516014D01*
X14707528Y-10530300D01*
X14721814Y-10544586D01*
X14736100Y-10573157D01*
X14750386Y-10630300D01*
X14750386Y-10701729D01*
X14736100Y-10758872D01*
X14721814Y-10787443D01*
X14707528Y-10801729D01*
X14678957Y-10816014D01*
X14650386Y-10816014D01*
X14621814Y-10801729D01*
X14607528Y-10787443D01*
X14593243Y-10758872D01*
X14578957Y-10701729D01*
X14578957Y-10630300D01*
X14593243Y-10573157D01*
X14607528Y-10544586D01*
X14621814Y-10530300D01*
X14650386Y-10516014D01*
X14864671Y-10544586D02*
X14878957Y-10530300D01*
X14907528Y-10516014D01*
X14978957Y-10516014D01*
X15007528Y-10530300D01*
X15021814Y-10544586D01*
X15036100Y-10573157D01*
X15036100Y-10601729D01*
X15021814Y-10644586D01*
X14850386Y-10816014D01*
X15036100Y-10816014D01*
X15136100Y-10516014D02*
X15321814Y-10516014D01*
X15221814Y-10630300D01*
X15264671Y-10630300D01*
X15293243Y-10644586D01*
X15307528Y-10658872D01*
X15321814Y-10687443D01*
X15321814Y-10758872D01*
X15307528Y-10787443D01*
X15293243Y-10801729D01*
X15264671Y-10816014D01*
X15178957Y-10816014D01*
X15150386Y-10801729D01*
X15136100Y-10787443D01*
X15578957Y-10516014D02*
X15521814Y-10516014D01*
X15493243Y-10530300D01*
X15478957Y-10544586D01*
X15450386Y-10587443D01*
X15436100Y-10644586D01*
X15436100Y-10758872D01*
X15450386Y-10787443D01*
X15464671Y-10801729D01*
X15493243Y-10816014D01*
X15550386Y-10816014D01*
X15578957Y-10801729D01*
X15593243Y-10787443D01*
X15607528Y-10758872D01*
X15607528Y-10687443D01*
X15593243Y-10658872D01*
X15578957Y-10644586D01*
X15550386Y-10630300D01*
X15493243Y-10630300D01*
X15464671Y-10644586D01*
X15450386Y-10658872D01*
X15436100Y-10687443D01*
X15721814Y-10516014D02*
X15721814Y-10573157D01*
X15836100Y-10516014D02*
X15836100Y-10573157D01*
X16278957Y-10930300D02*
X16264671Y-10916014D01*
X16236100Y-10873157D01*
X16221814Y-10844586D01*
X16207528Y-10801729D01*
X16193243Y-10730300D01*
X16193243Y-10673157D01*
X16207528Y-10601729D01*
X16221814Y-10558872D01*
X16236100Y-10530300D01*
X16264671Y-10487443D01*
X16278957Y-10473157D01*
X16450386Y-10516014D02*
X16478957Y-10516014D01*
X16507528Y-10530300D01*
X16521814Y-10544586D01*
X16536100Y-10573157D01*
X16550386Y-10630300D01*
X16550386Y-10701729D01*
X16536100Y-10758872D01*
X16521814Y-10787443D01*
X16507528Y-10801729D01*
X16478957Y-10816014D01*
X16450386Y-10816014D01*
X16421814Y-10801729D01*
X16407528Y-10787443D01*
X16393243Y-10758872D01*
X16378957Y-10701729D01*
X16378957Y-10630300D01*
X16393243Y-10573157D01*
X16407528Y-10544586D01*
X16421814Y-10530300D01*
X16450386Y-10516014D01*
X16907528Y-10816014D02*
X16907528Y-10516014D01*
X17036100Y-10816014D02*
X17036100Y-10658872D01*
X17021814Y-10630300D01*
X16993243Y-10616014D01*
X16950386Y-10616014D01*
X16921814Y-10630300D01*
X16907528Y-10644586D01*
X17221814Y-10816014D02*
X17193243Y-10801729D01*
X17178957Y-10787443D01*
X17164671Y-10758872D01*
X17164671Y-10673157D01*
X17178957Y-10644586D01*
X17193243Y-10630300D01*
X17221814Y-10616014D01*
X17264671Y-10616014D01*
X17293243Y-10630300D01*
X17307528Y-10644586D01*
X17321814Y-10673157D01*
X17321814Y-10758872D01*
X17307528Y-10787443D01*
X17293243Y-10801729D01*
X17264671Y-10816014D01*
X17221814Y-10816014D01*
X17493243Y-10816014D02*
X17464671Y-10801729D01*
X17450386Y-10773157D01*
X17450386Y-10516014D01*
X17721814Y-10801729D02*
X17693243Y-10816014D01*
X17636100Y-10816014D01*
X17607528Y-10801729D01*
X17593243Y-10773157D01*
X17593243Y-10658872D01*
X17607528Y-10630300D01*
X17636100Y-10616014D01*
X17693243Y-10616014D01*
X17721814Y-10630300D01*
X17736100Y-10658872D01*
X17736100Y-10687443D01*
X17593243Y-10716014D01*
X17850386Y-10801729D02*
X17878957Y-10816014D01*
X17936100Y-10816014D01*
X17964671Y-10801729D01*
X17978957Y-10773157D01*
X17978957Y-10758872D01*
X17964671Y-10730300D01*
X17936100Y-10716014D01*
X17893243Y-10716014D01*
X17864671Y-10701729D01*
X17850386Y-10673157D01*
X17850386Y-10658872D01*
X17864671Y-10630300D01*
X17893243Y-10616014D01*
X17936100Y-10616014D01*
X17964671Y-10630300D01*
X18336100Y-10701729D02*
X18564671Y-10701729D01*
X18450386Y-10816014D02*
X18450386Y-10587443D01*
X19064671Y-10616014D02*
X19064671Y-10816014D01*
X18993243Y-10501729D02*
X18921814Y-10716014D01*
X19107528Y-10716014D01*
X19436100Y-10801729D02*
X19464671Y-10816014D01*
X19521814Y-10816014D01*
X19550386Y-10801729D01*
X19564671Y-10773157D01*
X19564671Y-10758872D01*
X19550386Y-10730300D01*
X19521814Y-10716014D01*
X19478957Y-10716014D01*
X19450386Y-10701729D01*
X19436100Y-10673157D01*
X19436100Y-10658872D01*
X19450386Y-10630300D01*
X19478957Y-10616014D01*
X19521814Y-10616014D01*
X19550386Y-10630300D01*
X19736100Y-10816014D02*
X19707528Y-10801729D01*
X19693243Y-10773157D01*
X19693243Y-10516014D01*
X19893243Y-10816014D02*
X19864671Y-10801729D01*
X19850386Y-10787443D01*
X19836100Y-10758872D01*
X19836100Y-10673157D01*
X19850386Y-10644586D01*
X19864671Y-10630300D01*
X19893243Y-10616014D01*
X19936100Y-10616014D01*
X19964671Y-10630300D01*
X19978957Y-10644586D01*
X19993243Y-10673157D01*
X19993243Y-10758872D01*
X19978957Y-10787443D01*
X19964671Y-10801729D01*
X19936100Y-10816014D01*
X19893243Y-10816014D01*
X20078957Y-10616014D02*
X20193243Y-10616014D01*
X20121814Y-10516014D02*
X20121814Y-10773157D01*
X20136100Y-10801729D01*
X20164671Y-10816014D01*
X20193243Y-10816014D01*
X20278957Y-10801729D02*
X20307528Y-10816014D01*
X20364671Y-10816014D01*
X20393243Y-10801729D01*
X20407528Y-10773157D01*
X20407528Y-10758872D01*
X20393243Y-10730300D01*
X20364671Y-10716014D01*
X20321814Y-10716014D01*
X20293243Y-10701729D01*
X20278957Y-10673157D01*
X20278957Y-10658872D01*
X20293243Y-10630300D01*
X20321814Y-10616014D01*
X20364671Y-10616014D01*
X20393243Y-10630300D01*
X20507528Y-10930300D02*
X20521814Y-10916014D01*
X20550386Y-10873157D01*
X20564671Y-10844586D01*
X20578957Y-10801729D01*
X20593243Y-10730300D01*
X20593243Y-10673157D01*
X20578957Y-10601729D01*
X20564671Y-10558872D01*
X20550386Y-10530300D01*
X20521814Y-10487443D01*
X20507528Y-10473157D01*
X10971100Y-11026300D02*
X10971100Y-11126300D01*
X10921100Y-11076300D02*
X11021100Y-11076300D01*
X11464671Y-11212014D02*
X11293243Y-11212014D01*
X11378957Y-11212014D02*
X11378957Y-10912014D01*
X11350386Y-10954872D01*
X11321814Y-10983443D01*
X11293243Y-10997729D01*
X11593243Y-11183443D02*
X11607528Y-11197729D01*
X11593243Y-11212014D01*
X11578957Y-11197729D01*
X11593243Y-11183443D01*
X11593243Y-11212014D01*
X11793243Y-10912014D02*
X11821814Y-10912014D01*
X11850386Y-10926300D01*
X11864671Y-10940586D01*
X11878957Y-10969157D01*
X11893243Y-11026300D01*
X11893243Y-11097729D01*
X11878957Y-11154872D01*
X11864671Y-11183443D01*
X11850386Y-11197729D01*
X11821814Y-11212014D01*
X11793243Y-11212014D01*
X11764671Y-11197729D01*
X11750386Y-11183443D01*
X11736100Y-11154872D01*
X11721814Y-11097729D01*
X11721814Y-11026300D01*
X11736100Y-10969157D01*
X11750386Y-10940586D01*
X11764671Y-10926300D01*
X11793243Y-10912014D01*
X12078957Y-10912014D02*
X12107528Y-10912014D01*
X12136100Y-10926300D01*
X12150386Y-10940586D01*
X12164671Y-10969157D01*
X12178957Y-11026300D01*
X12178957Y-11097729D01*
X12164671Y-11154872D01*
X12150386Y-11183443D01*
X12136100Y-11197729D01*
X12107528Y-11212014D01*
X12078957Y-11212014D01*
X12050386Y-11197729D01*
X12036100Y-11183443D01*
X12021814Y-11154872D01*
X12007528Y-11097729D01*
X12007528Y-11026300D01*
X12021814Y-10969157D01*
X12036100Y-10940586D01*
X12050386Y-10926300D01*
X12078957Y-10912014D01*
X12364671Y-10912014D02*
X12393243Y-10912014D01*
X12421814Y-10926300D01*
X12436100Y-10940586D01*
X12450386Y-10969157D01*
X12464671Y-11026300D01*
X12464671Y-11097729D01*
X12450386Y-11154872D01*
X12436100Y-11183443D01*
X12421814Y-11197729D01*
X12393243Y-11212014D01*
X12364671Y-11212014D01*
X12336100Y-11197729D01*
X12321814Y-11183443D01*
X12307528Y-11154872D01*
X12293243Y-11097729D01*
X12293243Y-11026300D01*
X12307528Y-10969157D01*
X12321814Y-10940586D01*
X12336100Y-10926300D01*
X12364671Y-10912014D01*
X12593243Y-11212014D02*
X12593243Y-11012014D01*
X12593243Y-11040586D02*
X12607528Y-11026300D01*
X12636100Y-11012014D01*
X12678957Y-11012014D01*
X12707528Y-11026300D01*
X12721814Y-11054872D01*
X12721814Y-11212014D01*
X12721814Y-11054872D02*
X12736100Y-11026300D01*
X12764671Y-11012014D01*
X12807528Y-11012014D01*
X12836100Y-11026300D01*
X12850386Y-11054872D01*
X12850386Y-11212014D01*
X12993243Y-11212014D02*
X12993243Y-11012014D01*
X12993243Y-11040586D02*
X13007528Y-11026300D01*
X13036100Y-11012014D01*
X13078957Y-11012014D01*
X13107528Y-11026300D01*
X13121814Y-11054872D01*
X13121814Y-11212014D01*
X13121814Y-11054872D02*
X13136100Y-11026300D01*
X13164671Y-11012014D01*
X13207528Y-11012014D01*
X13236100Y-11026300D01*
X13250386Y-11054872D01*
X13250386Y-11212014D01*
X13836100Y-10897729D02*
X13578957Y-11283443D01*
X14221814Y-10912014D02*
X14250386Y-10912014D01*
X14278957Y-10926300D01*
X14293243Y-10940586D01*
X14307528Y-10969157D01*
X14321814Y-11026300D01*
X14321814Y-11097729D01*
X14307528Y-11154872D01*
X14293243Y-11183443D01*
X14278957Y-11197729D01*
X14250386Y-11212014D01*
X14221814Y-11212014D01*
X14193243Y-11197729D01*
X14178957Y-11183443D01*
X14164671Y-11154872D01*
X14150386Y-11097729D01*
X14150386Y-11026300D01*
X14164671Y-10969157D01*
X14178957Y-10940586D01*
X14193243Y-10926300D01*
X14221814Y-10912014D01*
X14450386Y-11183443D02*
X14464671Y-11197729D01*
X14450386Y-11212014D01*
X14436100Y-11197729D01*
X14450386Y-11183443D01*
X14450386Y-11212014D01*
X14650386Y-10912014D02*
X14678957Y-10912014D01*
X14707528Y-10926300D01*
X14721814Y-10940586D01*
X14736100Y-10969157D01*
X14750386Y-11026300D01*
X14750386Y-11097729D01*
X14736100Y-11154872D01*
X14721814Y-11183443D01*
X14707528Y-11197729D01*
X14678957Y-11212014D01*
X14650386Y-11212014D01*
X14621814Y-11197729D01*
X14607528Y-11183443D01*
X14593243Y-11154872D01*
X14578957Y-11097729D01*
X14578957Y-11026300D01*
X14593243Y-10969157D01*
X14607528Y-10940586D01*
X14621814Y-10926300D01*
X14650386Y-10912014D01*
X14850386Y-10912014D02*
X15036100Y-10912014D01*
X14936100Y-11026300D01*
X14978957Y-11026300D01*
X15007528Y-11040586D01*
X15021814Y-11054872D01*
X15036100Y-11083443D01*
X15036100Y-11154872D01*
X15021814Y-11183443D01*
X15007528Y-11197729D01*
X14978957Y-11212014D01*
X14893243Y-11212014D01*
X14864671Y-11197729D01*
X14850386Y-11183443D01*
X15178957Y-11212014D02*
X15236100Y-11212014D01*
X15264671Y-11197729D01*
X15278957Y-11183443D01*
X15307528Y-11140586D01*
X15321814Y-11083443D01*
X15321814Y-10969157D01*
X15307528Y-10940586D01*
X15293243Y-10926300D01*
X15264671Y-10912014D01*
X15207528Y-10912014D01*
X15178957Y-10926300D01*
X15164671Y-10940586D01*
X15150386Y-10969157D01*
X15150386Y-11040586D01*
X15164671Y-11069157D01*
X15178957Y-11083443D01*
X15207528Y-11097729D01*
X15264671Y-11097729D01*
X15293243Y-11083443D01*
X15307528Y-11069157D01*
X15321814Y-11040586D01*
X15578957Y-11012014D02*
X15578957Y-11212014D01*
X15507528Y-10897729D02*
X15436100Y-11112014D01*
X15621814Y-11112014D01*
X15721814Y-10912014D02*
X15721814Y-10969157D01*
X15836100Y-10912014D02*
X15836100Y-10969157D01*
X16278957Y-11326300D02*
X16264671Y-11312014D01*
X16236100Y-11269157D01*
X16221814Y-11240586D01*
X16207528Y-11197729D01*
X16193243Y-11126300D01*
X16193243Y-11069157D01*
X16207528Y-10997729D01*
X16221814Y-10954872D01*
X16236100Y-10926300D01*
X16264671Y-10883443D01*
X16278957Y-10869157D01*
X16364671Y-10912014D02*
X16564671Y-10912014D01*
X16436100Y-11212014D01*
X16907528Y-11212014D02*
X16907528Y-10912014D01*
X17036100Y-11212014D02*
X17036100Y-11054872D01*
X17021814Y-11026300D01*
X16993243Y-11012014D01*
X16950386Y-11012014D01*
X16921814Y-11026300D01*
X16907528Y-11040586D01*
X17221814Y-11212014D02*
X17193243Y-11197729D01*
X17178957Y-11183443D01*
X17164671Y-11154872D01*
X17164671Y-11069157D01*
X17178957Y-11040586D01*
X17193243Y-11026300D01*
X17221814Y-11012014D01*
X17264671Y-11012014D01*
X17293243Y-11026300D01*
X17307528Y-11040586D01*
X17321814Y-11069157D01*
X17321814Y-11154872D01*
X17307528Y-11183443D01*
X17293243Y-11197729D01*
X17264671Y-11212014D01*
X17221814Y-11212014D01*
X17493243Y-11212014D02*
X17464671Y-11197729D01*
X17450386Y-11169157D01*
X17450386Y-10912014D01*
X17721814Y-11197729D02*
X17693243Y-11212014D01*
X17636100Y-11212014D01*
X17607528Y-11197729D01*
X17593243Y-11169157D01*
X17593243Y-11054872D01*
X17607528Y-11026300D01*
X17636100Y-11012014D01*
X17693243Y-11012014D01*
X17721814Y-11026300D01*
X17736100Y-11054872D01*
X17736100Y-11083443D01*
X17593243Y-11112014D01*
X17850386Y-11197729D02*
X17878957Y-11212014D01*
X17936100Y-11212014D01*
X17964671Y-11197729D01*
X17978957Y-11169157D01*
X17978957Y-11154872D01*
X17964671Y-11126300D01*
X17936100Y-11112014D01*
X17893243Y-11112014D01*
X17864671Y-11097729D01*
X17850386Y-11069157D01*
X17850386Y-11054872D01*
X17864671Y-11026300D01*
X17893243Y-11012014D01*
X17936100Y-11012014D01*
X17964671Y-11026300D01*
X18078957Y-11326300D02*
X18093243Y-11312014D01*
X18121814Y-11269157D01*
X18136100Y-11240586D01*
X18150386Y-11197729D01*
X18164671Y-11126300D01*
X18164671Y-11069157D01*
X18150386Y-10997729D01*
X18136100Y-10954872D01*
X18121814Y-10926300D01*
X18093243Y-10883443D01*
X18078957Y-10869157D01*
X10988882Y-11550083D02*
X10988882Y-11394518D01*
X10833317Y-11394518D01*
X10833317Y-11550083D01*
X10988882Y-11550083D01*
X11293243Y-11336586D02*
X11307528Y-11322300D01*
X11336100Y-11308014D01*
X11407528Y-11308014D01*
X11436100Y-11322300D01*
X11450386Y-11336586D01*
X11464671Y-11365157D01*
X11464671Y-11393729D01*
X11450386Y-11436586D01*
X11278957Y-11608014D01*
X11464671Y-11608014D01*
X11593243Y-11579443D02*
X11607528Y-11593729D01*
X11593243Y-11608014D01*
X11578957Y-11593729D01*
X11593243Y-11579443D01*
X11593243Y-11608014D01*
X11721814Y-11336586D02*
X11736100Y-11322300D01*
X11764671Y-11308014D01*
X11836100Y-11308014D01*
X11864671Y-11322300D01*
X11878957Y-11336586D01*
X11893243Y-11365157D01*
X11893243Y-11393729D01*
X11878957Y-11436586D01*
X11707528Y-11608014D01*
X11893243Y-11608014D01*
X12078957Y-11308014D02*
X12107528Y-11308014D01*
X12136100Y-11322300D01*
X12150386Y-11336586D01*
X12164671Y-11365157D01*
X12178957Y-11422300D01*
X12178957Y-11493729D01*
X12164671Y-11550871D01*
X12150386Y-11579443D01*
X12136100Y-11593729D01*
X12107528Y-11608014D01*
X12078957Y-11608014D01*
X12050386Y-11593729D01*
X12036100Y-11579443D01*
X12021814Y-11550871D01*
X12007528Y-11493729D01*
X12007528Y-11422300D01*
X12021814Y-11365157D01*
X12036100Y-11336586D01*
X12050386Y-11322300D01*
X12078957Y-11308014D01*
X12364671Y-11308014D02*
X12393243Y-11308014D01*
X12421814Y-11322300D01*
X12436100Y-11336586D01*
X12450386Y-11365157D01*
X12464671Y-11422300D01*
X12464671Y-11493729D01*
X12450386Y-11550871D01*
X12436100Y-11579443D01*
X12421814Y-11593729D01*
X12393243Y-11608014D01*
X12364671Y-11608014D01*
X12336100Y-11593729D01*
X12321814Y-11579443D01*
X12307528Y-11550871D01*
X12293243Y-11493729D01*
X12293243Y-11422300D01*
X12307528Y-11365157D01*
X12321814Y-11336586D01*
X12336100Y-11322300D01*
X12364671Y-11308014D01*
X12593243Y-11608014D02*
X12593243Y-11408014D01*
X12593243Y-11436586D02*
X12607528Y-11422300D01*
X12636100Y-11408014D01*
X12678957Y-11408014D01*
X12707528Y-11422300D01*
X12721814Y-11450871D01*
X12721814Y-11608014D01*
X12721814Y-11450871D02*
X12736100Y-11422300D01*
X12764671Y-11408014D01*
X12807528Y-11408014D01*
X12836100Y-11422300D01*
X12850386Y-11450871D01*
X12850386Y-11608014D01*
X12993243Y-11608014D02*
X12993243Y-11408014D01*
X12993243Y-11436586D02*
X13007528Y-11422300D01*
X13036100Y-11408014D01*
X13078957Y-11408014D01*
X13107528Y-11422300D01*
X13121814Y-11450871D01*
X13121814Y-11608014D01*
X13121814Y-11450871D02*
X13136100Y-11422300D01*
X13164671Y-11408014D01*
X13207528Y-11408014D01*
X13236100Y-11422300D01*
X13250386Y-11450871D01*
X13250386Y-11608014D01*
X13836100Y-11293729D02*
X13578957Y-11679443D01*
X14221814Y-11308014D02*
X14250386Y-11308014D01*
X14278957Y-11322300D01*
X14293243Y-11336586D01*
X14307528Y-11365157D01*
X14321814Y-11422300D01*
X14321814Y-11493729D01*
X14307528Y-11550871D01*
X14293243Y-11579443D01*
X14278957Y-11593729D01*
X14250386Y-11608014D01*
X14221814Y-11608014D01*
X14193243Y-11593729D01*
X14178957Y-11579443D01*
X14164671Y-11550871D01*
X14150386Y-11493729D01*
X14150386Y-11422300D01*
X14164671Y-11365157D01*
X14178957Y-11336586D01*
X14193243Y-11322300D01*
X14221814Y-11308014D01*
X14450386Y-11579443D02*
X14464671Y-11593729D01*
X14450386Y-11608014D01*
X14436100Y-11593729D01*
X14450386Y-11579443D01*
X14450386Y-11608014D01*
X14650386Y-11308014D02*
X14678957Y-11308014D01*
X14707528Y-11322300D01*
X14721814Y-11336586D01*
X14736100Y-11365157D01*
X14750386Y-11422300D01*
X14750386Y-11493729D01*
X14736100Y-11550871D01*
X14721814Y-11579443D01*
X14707528Y-11593729D01*
X14678957Y-11608014D01*
X14650386Y-11608014D01*
X14621814Y-11593729D01*
X14607528Y-11579443D01*
X14593243Y-11550871D01*
X14578957Y-11493729D01*
X14578957Y-11422300D01*
X14593243Y-11365157D01*
X14607528Y-11336586D01*
X14621814Y-11322300D01*
X14650386Y-11308014D01*
X14921814Y-11436586D02*
X14893243Y-11422300D01*
X14878957Y-11408014D01*
X14864671Y-11379443D01*
X14864671Y-11365157D01*
X14878957Y-11336586D01*
X14893243Y-11322300D01*
X14921814Y-11308014D01*
X14978957Y-11308014D01*
X15007528Y-11322300D01*
X15021814Y-11336586D01*
X15036100Y-11365157D01*
X15036100Y-11379443D01*
X15021814Y-11408014D01*
X15007528Y-11422300D01*
X14978957Y-11436586D01*
X14921814Y-11436586D01*
X14893243Y-11450871D01*
X14878957Y-11465157D01*
X14864671Y-11493729D01*
X14864671Y-11550871D01*
X14878957Y-11579443D01*
X14893243Y-11593729D01*
X14921814Y-11608014D01*
X14978957Y-11608014D01*
X15007528Y-11593729D01*
X15021814Y-11579443D01*
X15036100Y-11550871D01*
X15036100Y-11493729D01*
X15021814Y-11465157D01*
X15007528Y-11450871D01*
X14978957Y-11436586D01*
X15293243Y-11308014D02*
X15236100Y-11308014D01*
X15207528Y-11322300D01*
X15193243Y-11336586D01*
X15164671Y-11379443D01*
X15150386Y-11436586D01*
X15150386Y-11550871D01*
X15164671Y-11579443D01*
X15178957Y-11593729D01*
X15207528Y-11608014D01*
X15264671Y-11608014D01*
X15293243Y-11593729D01*
X15307528Y-11579443D01*
X15321814Y-11550871D01*
X15321814Y-11479443D01*
X15307528Y-11450871D01*
X15293243Y-11436586D01*
X15264671Y-11422300D01*
X15207528Y-11422300D01*
X15178957Y-11436586D01*
X15164671Y-11450871D01*
X15150386Y-11479443D01*
X15578957Y-11308014D02*
X15521814Y-11308014D01*
X15493243Y-11322300D01*
X15478957Y-11336586D01*
X15450386Y-11379443D01*
X15436100Y-11436586D01*
X15436100Y-11550871D01*
X15450386Y-11579443D01*
X15464671Y-11593729D01*
X15493243Y-11608014D01*
X15550386Y-11608014D01*
X15578957Y-11593729D01*
X15593243Y-11579443D01*
X15607528Y-11550871D01*
X15607528Y-11479443D01*
X15593243Y-11450871D01*
X15578957Y-11436586D01*
X15550386Y-11422300D01*
X15493243Y-11422300D01*
X15464671Y-11436586D01*
X15450386Y-11450871D01*
X15436100Y-11479443D01*
X15721814Y-11308014D02*
X15721814Y-11365157D01*
X15836100Y-11308014D02*
X15836100Y-11365157D01*
X16278957Y-11722300D02*
X16264671Y-11708014D01*
X16236100Y-11665157D01*
X16221814Y-11636586D01*
X16207528Y-11593729D01*
X16193243Y-11522300D01*
X16193243Y-11465157D01*
X16207528Y-11393729D01*
X16221814Y-11350871D01*
X16236100Y-11322300D01*
X16264671Y-11279443D01*
X16278957Y-11265157D01*
X16521814Y-11408014D02*
X16521814Y-11608014D01*
X16450386Y-11293729D02*
X16378957Y-11508014D01*
X16564671Y-11508014D01*
X16907528Y-11608014D02*
X16907528Y-11308014D01*
X17036100Y-11608014D02*
X17036100Y-11450871D01*
X17021814Y-11422300D01*
X16993243Y-11408014D01*
X16950386Y-11408014D01*
X16921814Y-11422300D01*
X16907528Y-11436586D01*
X17221814Y-11608014D02*
X17193243Y-11593729D01*
X17178957Y-11579443D01*
X17164671Y-11550871D01*
X17164671Y-11465157D01*
X17178957Y-11436586D01*
X17193243Y-11422300D01*
X17221814Y-11408014D01*
X17264671Y-11408014D01*
X17293243Y-11422300D01*
X17307528Y-11436586D01*
X17321814Y-11465157D01*
X17321814Y-11550871D01*
X17307528Y-11579443D01*
X17293243Y-11593729D01*
X17264671Y-11608014D01*
X17221814Y-11608014D01*
X17493243Y-11608014D02*
X17464671Y-11593729D01*
X17450386Y-11565157D01*
X17450386Y-11308014D01*
X17721814Y-11593729D02*
X17693243Y-11608014D01*
X17636100Y-11608014D01*
X17607528Y-11593729D01*
X17593243Y-11565157D01*
X17593243Y-11450871D01*
X17607528Y-11422300D01*
X17636100Y-11408014D01*
X17693243Y-11408014D01*
X17721814Y-11422300D01*
X17736100Y-11450871D01*
X17736100Y-11479443D01*
X17593243Y-11508014D01*
X17850386Y-11593729D02*
X17878957Y-11608014D01*
X17936100Y-11608014D01*
X17964671Y-11593729D01*
X17978957Y-11565157D01*
X17978957Y-11550871D01*
X17964671Y-11522300D01*
X17936100Y-11508014D01*
X17893243Y-11508014D01*
X17864671Y-11493729D01*
X17850386Y-11465157D01*
X17850386Y-11450871D01*
X17864671Y-11422300D01*
X17893243Y-11408014D01*
X17936100Y-11408014D01*
X17964671Y-11422300D01*
X18078957Y-11722300D02*
X18093243Y-11708014D01*
X18121814Y-11665157D01*
X18136100Y-11636586D01*
X18150386Y-11593729D01*
X18164671Y-11522300D01*
X18164671Y-11465157D01*
X18150386Y-11393729D01*
X18136100Y-11350871D01*
X18121814Y-11322300D01*
X18093243Y-11279443D01*
X18078957Y-11265157D01*
X18621814Y-11722300D02*
X18607528Y-11708014D01*
X18578957Y-11665157D01*
X18564671Y-11636586D01*
X18550386Y-11593729D01*
X18536100Y-11522300D01*
X18536100Y-11465157D01*
X18550386Y-11393729D01*
X18564671Y-11350871D01*
X18578957Y-11322300D01*
X18607528Y-11279443D01*
X18621814Y-11265157D01*
X18736100Y-11408014D02*
X18736100Y-11608014D01*
X18736100Y-11436586D02*
X18750386Y-11422300D01*
X18778957Y-11408014D01*
X18821814Y-11408014D01*
X18850386Y-11422300D01*
X18864671Y-11450871D01*
X18864671Y-11608014D01*
X19050386Y-11608014D02*
X19021814Y-11593729D01*
X19007528Y-11579443D01*
X18993243Y-11550871D01*
X18993243Y-11465157D01*
X19007528Y-11436586D01*
X19021814Y-11422300D01*
X19050386Y-11408014D01*
X19093243Y-11408014D01*
X19121814Y-11422300D01*
X19136100Y-11436586D01*
X19150386Y-11465157D01*
X19150386Y-11550871D01*
X19136100Y-11579443D01*
X19121814Y-11593729D01*
X19093243Y-11608014D01*
X19050386Y-11608014D01*
X19236100Y-11408014D02*
X19350386Y-11408014D01*
X19278957Y-11308014D02*
X19278957Y-11565157D01*
X19293243Y-11593729D01*
X19321814Y-11608014D01*
X19350386Y-11608014D01*
X19678957Y-11408014D02*
X19678957Y-11708014D01*
X19678957Y-11422300D02*
X19707528Y-11408014D01*
X19764671Y-11408014D01*
X19793243Y-11422300D01*
X19807528Y-11436586D01*
X19821814Y-11465157D01*
X19821814Y-11550871D01*
X19807528Y-11579443D01*
X19793243Y-11593729D01*
X19764671Y-11608014D01*
X19707528Y-11608014D01*
X19678957Y-11593729D01*
X19993243Y-11608014D02*
X19964671Y-11593729D01*
X19950386Y-11565157D01*
X19950386Y-11308014D01*
X20236100Y-11608014D02*
X20236100Y-11450871D01*
X20221814Y-11422300D01*
X20193243Y-11408014D01*
X20136100Y-11408014D01*
X20107528Y-11422300D01*
X20236100Y-11593729D02*
X20207528Y-11608014D01*
X20136100Y-11608014D01*
X20107528Y-11593729D01*
X20093243Y-11565157D01*
X20093243Y-11536586D01*
X20107528Y-11508014D01*
X20136100Y-11493729D01*
X20207528Y-11493729D01*
X20236100Y-11479443D01*
X20336100Y-11408014D02*
X20450386Y-11408014D01*
X20378957Y-11308014D02*
X20378957Y-11565157D01*
X20393243Y-11593729D01*
X20421814Y-11608014D01*
X20450386Y-11608014D01*
X20664671Y-11593729D02*
X20636100Y-11608014D01*
X20578957Y-11608014D01*
X20550386Y-11593729D01*
X20536100Y-11565157D01*
X20536100Y-11450871D01*
X20550386Y-11422300D01*
X20578957Y-11408014D01*
X20636100Y-11408014D01*
X20664671Y-11422300D01*
X20678957Y-11450871D01*
X20678957Y-11479443D01*
X20536100Y-11508014D01*
X20936100Y-11608014D02*
X20936100Y-11308014D01*
X20936100Y-11593729D02*
X20907528Y-11608014D01*
X20850386Y-11608014D01*
X20821814Y-11593729D01*
X20807528Y-11579443D01*
X20793243Y-11550871D01*
X20793243Y-11465157D01*
X20807528Y-11436586D01*
X20821814Y-11422300D01*
X20850386Y-11408014D01*
X20907528Y-11408014D01*
X20936100Y-11422300D01*
X21050386Y-11722300D02*
X21064671Y-11708014D01*
X21093243Y-11665157D01*
X21107528Y-11636586D01*
X21121814Y-11593729D01*
X21136100Y-11522300D01*
X21136100Y-11465157D01*
X21121814Y-11393729D01*
X21107528Y-11350871D01*
X21093243Y-11322300D01*
X21064671Y-11279443D01*
X21050386Y-11265157D01*
M02*
