M48
; DRILL file {KiCad (5.1.10)-1} date 11/03/22 02:13:29
; FORMAT={-:-/ absolute / inch / decimal}
; #@! TF.CreationDate,2022-11-03T02:13:29+01:00
; #@! TF.GenerationSoftware,Kicad,Pcbnew,(5.1.10)-1
FMAT,2
INCH
T1C0.0157
T2C0.0236
T3C0.0394
T4C0.0866
%
G90
G05
T1
X4.79Y-3.405
X4.845Y-3.225
X4.85Y-3.175
X4.855Y-3.27
X4.98Y-3.535
X5.04Y-3.2125
X5.0425Y-3.2775
X5.05Y-2.89
X5.0685Y-3.1526
X5.07Y-3.38
X5.11Y-3.39
X5.14Y-3.49
X5.18Y-3.49
X5.2083Y-3.2203
X5.3075Y-3.2975
X5.3223Y-3.3434
X5.3274Y-3.1059
X5.3508Y-3.3879
X5.3835Y-3.1612
X5.4476Y-3.0724
X5.4794Y-3.2589
X5.535Y-3.1
X5.545Y-3.055
X5.555Y-3.15
X5.62Y-3.055
X5.75Y-3.145
X5.785Y-3.225
X5.9675Y-3.0732
X5.9675Y-3.1067
X5.9675Y-3.1402
X5.9675Y-3.1736
X5.9675Y-3.2071
X5.9675Y-3.2406
X5.9675Y-3.274
X5.9675Y-3.3075
X6.0206Y-3.0732
X6.0206Y-3.1067
X6.0206Y-3.1402
X6.0206Y-3.1736
X6.0206Y-3.2071
X6.0206Y-3.2406
X6.0206Y-3.274
X6.0206Y-3.3075
T3
X4.575Y-3.14
X4.575Y-3.24
X4.575Y-3.34
X5.175Y-2.925
X5.275Y-2.925
X5.375Y-2.925
X5.475Y-2.925
T4
X4.4463Y-2.9
X4.4463Y-3.5614
X5.8164Y-2.9
X5.8164Y-3.5614
T2
G00X5.9766Y-3.0201
M15
G01X6.0356Y-3.0201
M16
G05
G00X5.9766Y-3.3606
M15
G01X6.0356Y-3.3606
M16
G05
G00X6.1234Y-3.0201
M15
G01X6.1549Y-3.0201
M16
G05
G00X6.1234Y-3.3606
M15
G01X6.1549Y-3.3606
M16
G05
T0
M30
