%TF.GenerationSoftware,KiCad,Pcbnew,(5.1.10)-1*%
%TF.CreationDate,2022-11-03T02:13:26+01:00*%
%TF.ProjectId,can2usb,63616e32-7573-4622-9e6b-696361645f70,rev?*%
%TF.SameCoordinates,Original*%
%TF.FileFunction,Legend,Bot*%
%TF.FilePolarity,Positive*%
%FSLAX46Y46*%
G04 Gerber Fmt 4.6, Leading zero omitted, Abs format (unit mm)*
G04 Created by KiCad (PCBNEW (5.1.10)-1) date 2022-11-03 02:13:26*
%MOMM*%
%LPD*%
G01*
G04 APERTURE LIST*
%ADD10C,0.120000*%
%ADD11C,0.150000*%
%ADD12C,0.125000*%
G04 APERTURE END LIST*
D10*
%TO.C,C4*%
X136733349Y-83229534D02*
X136569534Y-83393349D01*
X137242466Y-83738651D02*
X137078651Y-83902466D01*
%TO.C,U5*%
X144410000Y-81366000D02*
X142610000Y-81366000D01*
X142610000Y-78146000D02*
X145060000Y-78146000D01*
%TO.C,RCF2*%
X148757621Y-80900000D02*
X148422379Y-80900000D01*
X148757621Y-81660000D02*
X148422379Y-81660000D01*
%TO.C,RCF1*%
X148757621Y-79439500D02*
X148422379Y-79439500D01*
X148757621Y-80199500D02*
X148422379Y-80199500D01*
%TO.C,R7*%
X148757621Y-82297000D02*
X148422379Y-82297000D01*
X148757621Y-83057000D02*
X148422379Y-83057000D01*
%TO.C,R6*%
X148422379Y-78866000D02*
X148757621Y-78866000D01*
X148422379Y-78106000D02*
X148757621Y-78106000D01*
%TO.C,R1*%
X148757621Y-83948000D02*
X148422379Y-83948000D01*
X148757621Y-84708000D02*
X148422379Y-84708000D01*
%TO.C,C8*%
X133522651Y-84156466D02*
X133686466Y-83992651D01*
X133013534Y-83647349D02*
X133177349Y-83483534D01*
%TO.C,C7*%
X132740368Y-83287749D02*
X132904183Y-83123934D01*
X132231251Y-82778632D02*
X132395066Y-82614817D01*
%TO.C,C6*%
X134518368Y-86970749D02*
X134682183Y-86806934D01*
X134009251Y-86461632D02*
X134173066Y-86297817D01*
%TO.C,C5*%
X133629368Y-86081749D02*
X133793183Y-85917934D01*
X133120251Y-85572632D02*
X133284066Y-85408817D01*
%TO.C,C3*%
X135824066Y-82360817D02*
X135660251Y-82524632D01*
X136333183Y-82869934D02*
X136169368Y-83033749D01*
%TO.C,C2*%
X134935066Y-81471817D02*
X134771251Y-81635632D01*
X135444183Y-81980934D02*
X135280368Y-82144749D01*
%TO.C,C1*%
X134046066Y-80582817D02*
X133882251Y-80746632D01*
X134555183Y-81091934D02*
X134391368Y-81255749D01*
%TO.C,C4*%
D11*
X138398233Y-82249812D02*
X138438639Y-82249812D01*
X138519451Y-82209406D01*
X138559857Y-82169000D01*
X138600264Y-82088187D01*
X138600264Y-82007375D01*
X138580061Y-81946766D01*
X138519451Y-81845751D01*
X138458842Y-81785142D01*
X138357827Y-81724532D01*
X138297218Y-81704329D01*
X138216406Y-81704329D01*
X138135593Y-81744735D01*
X138095187Y-81785142D01*
X138054781Y-81865954D01*
X138054781Y-81906360D01*
X137792142Y-82371030D02*
X138074984Y-82653873D01*
X137731532Y-82108390D02*
X138135593Y-82310421D01*
X137872954Y-82573061D01*
%TO.C,U5*%
X143967142Y-76527428D02*
X143967142Y-77013142D01*
X143938571Y-77070285D01*
X143910000Y-77098857D01*
X143852857Y-77127428D01*
X143738571Y-77127428D01*
X143681428Y-77098857D01*
X143652857Y-77070285D01*
X143624285Y-77013142D01*
X143624285Y-76527428D01*
X143052857Y-76527428D02*
X143338571Y-76527428D01*
X143367142Y-76813142D01*
X143338571Y-76784571D01*
X143281428Y-76756000D01*
X143138571Y-76756000D01*
X143081428Y-76784571D01*
X143052857Y-76813142D01*
X143024285Y-76870285D01*
X143024285Y-77013142D01*
X143052857Y-77070285D01*
X143081428Y-77098857D01*
X143138571Y-77127428D01*
X143281428Y-77127428D01*
X143338571Y-77098857D01*
X143367142Y-77070285D01*
%TO.C,RCF2*%
X147088142Y-81551428D02*
X147288142Y-81265714D01*
X147431000Y-81551428D02*
X147431000Y-80951428D01*
X147202428Y-80951428D01*
X147145285Y-80980000D01*
X147116714Y-81008571D01*
X147088142Y-81065714D01*
X147088142Y-81151428D01*
X147116714Y-81208571D01*
X147145285Y-81237142D01*
X147202428Y-81265714D01*
X147431000Y-81265714D01*
X146488142Y-81494285D02*
X146516714Y-81522857D01*
X146602428Y-81551428D01*
X146659571Y-81551428D01*
X146745285Y-81522857D01*
X146802428Y-81465714D01*
X146831000Y-81408571D01*
X146859571Y-81294285D01*
X146859571Y-81208571D01*
X146831000Y-81094285D01*
X146802428Y-81037142D01*
X146745285Y-80980000D01*
X146659571Y-80951428D01*
X146602428Y-80951428D01*
X146516714Y-80980000D01*
X146488142Y-81008571D01*
X146031000Y-81237142D02*
X146231000Y-81237142D01*
X146231000Y-81551428D02*
X146231000Y-80951428D01*
X145945285Y-80951428D01*
X145745285Y-81008571D02*
X145716714Y-80980000D01*
X145659571Y-80951428D01*
X145516714Y-80951428D01*
X145459571Y-80980000D01*
X145431000Y-81008571D01*
X145402428Y-81065714D01*
X145402428Y-81122857D01*
X145431000Y-81208571D01*
X145773857Y-81551428D01*
X145402428Y-81551428D01*
%TO.C,RCF1*%
D12*
X147088142Y-80027428D02*
X147288142Y-79741714D01*
X147431000Y-80027428D02*
X147431000Y-79427428D01*
X147202428Y-79427428D01*
X147145285Y-79456000D01*
X147116714Y-79484571D01*
X147088142Y-79541714D01*
X147088142Y-79627428D01*
X147116714Y-79684571D01*
X147145285Y-79713142D01*
X147202428Y-79741714D01*
X147431000Y-79741714D01*
X146488142Y-79970285D02*
X146516714Y-79998857D01*
X146602428Y-80027428D01*
X146659571Y-80027428D01*
X146745285Y-79998857D01*
X146802428Y-79941714D01*
X146831000Y-79884571D01*
X146859571Y-79770285D01*
X146859571Y-79684571D01*
X146831000Y-79570285D01*
X146802428Y-79513142D01*
X146745285Y-79456000D01*
X146659571Y-79427428D01*
X146602428Y-79427428D01*
X146516714Y-79456000D01*
X146488142Y-79484571D01*
X146031000Y-79713142D02*
X146231000Y-79713142D01*
X146231000Y-80027428D02*
X146231000Y-79427428D01*
X145945285Y-79427428D01*
X145402428Y-80027428D02*
X145745285Y-80027428D01*
X145573857Y-80027428D02*
X145573857Y-79427428D01*
X145631000Y-79513142D01*
X145688142Y-79570285D01*
X145745285Y-79598857D01*
%TO.C,R7*%
D11*
X146912000Y-82948428D02*
X147112000Y-82662714D01*
X147254857Y-82948428D02*
X147254857Y-82348428D01*
X147026285Y-82348428D01*
X146969142Y-82377000D01*
X146940571Y-82405571D01*
X146912000Y-82462714D01*
X146912000Y-82548428D01*
X146940571Y-82605571D01*
X146969142Y-82634142D01*
X147026285Y-82662714D01*
X147254857Y-82662714D01*
X146712000Y-82348428D02*
X146312000Y-82348428D01*
X146569142Y-82948428D01*
%TO.C,R6*%
D12*
X146912000Y-78757428D02*
X147112000Y-78471714D01*
X147254857Y-78757428D02*
X147254857Y-78157428D01*
X147026285Y-78157428D01*
X146969142Y-78186000D01*
X146940571Y-78214571D01*
X146912000Y-78271714D01*
X146912000Y-78357428D01*
X146940571Y-78414571D01*
X146969142Y-78443142D01*
X147026285Y-78471714D01*
X147254857Y-78471714D01*
X146397714Y-78157428D02*
X146512000Y-78157428D01*
X146569142Y-78186000D01*
X146597714Y-78214571D01*
X146654857Y-78300285D01*
X146683428Y-78414571D01*
X146683428Y-78643142D01*
X146654857Y-78700285D01*
X146626285Y-78728857D01*
X146569142Y-78757428D01*
X146454857Y-78757428D01*
X146397714Y-78728857D01*
X146369142Y-78700285D01*
X146340571Y-78643142D01*
X146340571Y-78500285D01*
X146369142Y-78443142D01*
X146397714Y-78414571D01*
X146454857Y-78386000D01*
X146569142Y-78386000D01*
X146626285Y-78414571D01*
X146654857Y-78443142D01*
X146683428Y-78500285D01*
%TO.C,R1*%
D11*
X146912000Y-84599428D02*
X147112000Y-84313714D01*
X147254857Y-84599428D02*
X147254857Y-83999428D01*
X147026285Y-83999428D01*
X146969142Y-84028000D01*
X146940571Y-84056571D01*
X146912000Y-84113714D01*
X146912000Y-84199428D01*
X146940571Y-84256571D01*
X146969142Y-84285142D01*
X147026285Y-84313714D01*
X147254857Y-84313714D01*
X146340571Y-84599428D02*
X146683428Y-84599428D01*
X146512000Y-84599428D02*
X146512000Y-83999428D01*
X146569142Y-84085142D01*
X146626285Y-84142285D01*
X146683428Y-84170857D01*
%TO.C,C8*%
X132175233Y-85170812D02*
X132215639Y-85170812D01*
X132296451Y-85130406D01*
X132336857Y-85090000D01*
X132377264Y-85009187D01*
X132377264Y-84928375D01*
X132357061Y-84867766D01*
X132296451Y-84766751D01*
X132235842Y-84706142D01*
X132134827Y-84645532D01*
X132074218Y-84625329D01*
X131993406Y-84625329D01*
X131912593Y-84665735D01*
X131872187Y-84706142D01*
X131831781Y-84786954D01*
X131831781Y-84827360D01*
X131730766Y-85211218D02*
X131750969Y-85150609D01*
X131750969Y-85110203D01*
X131730766Y-85049593D01*
X131710563Y-85029390D01*
X131649954Y-85009187D01*
X131609548Y-85009187D01*
X131548938Y-85029390D01*
X131468126Y-85110203D01*
X131447923Y-85170812D01*
X131447923Y-85211218D01*
X131468126Y-85271827D01*
X131488329Y-85292030D01*
X131548938Y-85312233D01*
X131589345Y-85312233D01*
X131649954Y-85292030D01*
X131730766Y-85211218D01*
X131791375Y-85191015D01*
X131831781Y-85191015D01*
X131892390Y-85211218D01*
X131973203Y-85292030D01*
X131993406Y-85352639D01*
X131993406Y-85393045D01*
X131973203Y-85453654D01*
X131892390Y-85534467D01*
X131831781Y-85554670D01*
X131791375Y-85554670D01*
X131730766Y-85534467D01*
X131649954Y-85453654D01*
X131629751Y-85393045D01*
X131629751Y-85352639D01*
X131649954Y-85292030D01*
%TO.C,C7*%
X131159233Y-84408812D02*
X131199639Y-84408812D01*
X131280451Y-84368406D01*
X131320857Y-84328000D01*
X131361264Y-84247187D01*
X131361264Y-84166375D01*
X131341061Y-84105766D01*
X131280451Y-84004751D01*
X131219842Y-83944142D01*
X131118827Y-83883532D01*
X131058218Y-83863329D01*
X130977406Y-83863329D01*
X130896593Y-83903735D01*
X130856187Y-83944142D01*
X130815781Y-84024954D01*
X130815781Y-84065360D01*
X130633954Y-84166375D02*
X130351111Y-84449218D01*
X130957203Y-84691654D01*
%TO.C,C6*%
X135388194Y-87535339D02*
X135428600Y-87535339D01*
X135509412Y-87494933D01*
X135549818Y-87454527D01*
X135590225Y-87373714D01*
X135590225Y-87292902D01*
X135570022Y-87232293D01*
X135509412Y-87131278D01*
X135448803Y-87070669D01*
X135347788Y-87010059D01*
X135287179Y-86989856D01*
X135206367Y-86989856D01*
X135125554Y-87030262D01*
X135085148Y-87070669D01*
X135044742Y-87151481D01*
X135044742Y-87191887D01*
X134640681Y-87515136D02*
X134721493Y-87434323D01*
X134782103Y-87414120D01*
X134822509Y-87414120D01*
X134923524Y-87434323D01*
X135024539Y-87494933D01*
X135186164Y-87656557D01*
X135206367Y-87717166D01*
X135206367Y-87757572D01*
X135186164Y-87818181D01*
X135105351Y-87898994D01*
X135044742Y-87919197D01*
X135004336Y-87919197D01*
X134943727Y-87898994D01*
X134842712Y-87797978D01*
X134822509Y-87737369D01*
X134822509Y-87696963D01*
X134842712Y-87636354D01*
X134923524Y-87555542D01*
X134984133Y-87535339D01*
X135024539Y-87535339D01*
X135085148Y-87555542D01*
%TO.C,C5*%
X134499194Y-86646339D02*
X134539600Y-86646339D01*
X134620412Y-86605933D01*
X134660818Y-86565527D01*
X134701225Y-86484714D01*
X134701225Y-86403902D01*
X134681022Y-86343293D01*
X134620412Y-86242278D01*
X134559803Y-86181669D01*
X134458788Y-86121059D01*
X134398179Y-86100856D01*
X134317367Y-86100856D01*
X134236554Y-86141262D01*
X134196148Y-86181669D01*
X134155742Y-86262481D01*
X134155742Y-86302887D01*
X133731478Y-86646339D02*
X133933509Y-86444308D01*
X134155742Y-86626136D01*
X134115336Y-86626136D01*
X134054727Y-86646339D01*
X133953712Y-86747354D01*
X133933509Y-86807963D01*
X133933509Y-86848369D01*
X133953712Y-86908978D01*
X134054727Y-87009994D01*
X134115336Y-87030197D01*
X134155742Y-87030197D01*
X134216351Y-87009994D01*
X134317367Y-86908978D01*
X134337570Y-86848369D01*
X134337570Y-86807963D01*
%TO.C,C3*%
X137509232Y-81360812D02*
X137549638Y-81360812D01*
X137630450Y-81320406D01*
X137670856Y-81280000D01*
X137711263Y-81199187D01*
X137711263Y-81118375D01*
X137691060Y-81057766D01*
X137630450Y-80956751D01*
X137569841Y-80896142D01*
X137468826Y-80835532D01*
X137408217Y-80815329D01*
X137327405Y-80815329D01*
X137246592Y-80855735D01*
X137206186Y-80896142D01*
X137165780Y-80976954D01*
X137165780Y-81017360D01*
X136983953Y-81118375D02*
X136721313Y-81381015D01*
X137024359Y-81401218D01*
X136963750Y-81461827D01*
X136943547Y-81522436D01*
X136943547Y-81562842D01*
X136963750Y-81623451D01*
X137064765Y-81724467D01*
X137125374Y-81744670D01*
X137165780Y-81744670D01*
X137226389Y-81724467D01*
X137347608Y-81603248D01*
X137367811Y-81542639D01*
X137367811Y-81502233D01*
%TO.C,C2*%
X136620233Y-80598812D02*
X136660639Y-80598812D01*
X136741451Y-80558406D01*
X136781857Y-80518000D01*
X136822264Y-80437187D01*
X136822264Y-80356375D01*
X136802061Y-80295766D01*
X136741451Y-80194751D01*
X136680842Y-80134142D01*
X136579827Y-80073532D01*
X136519218Y-80053329D01*
X136438406Y-80053329D01*
X136357593Y-80093735D01*
X136317187Y-80134142D01*
X136276781Y-80214954D01*
X136276781Y-80255360D01*
X136115157Y-80416984D02*
X136074751Y-80416984D01*
X136014142Y-80437187D01*
X135913126Y-80538203D01*
X135892923Y-80598812D01*
X135892923Y-80639218D01*
X135913126Y-80699827D01*
X135953532Y-80740233D01*
X136034345Y-80780639D01*
X136519218Y-80780639D01*
X136256578Y-81043279D01*
%TO.C,C1*%
X135731232Y-79730095D02*
X135771638Y-79730095D01*
X135852450Y-79689689D01*
X135892856Y-79649283D01*
X135933263Y-79568470D01*
X135933263Y-79487658D01*
X135913060Y-79427049D01*
X135852450Y-79326034D01*
X135791841Y-79265425D01*
X135690826Y-79204815D01*
X135630217Y-79184612D01*
X135549405Y-79184612D01*
X135468592Y-79225018D01*
X135428186Y-79265425D01*
X135387780Y-79346237D01*
X135387780Y-79386643D01*
X135367577Y-80174562D02*
X135610014Y-79932125D01*
X135488795Y-80053344D02*
X135064531Y-79629079D01*
X135165547Y-79649283D01*
X135246359Y-79649283D01*
X135306968Y-79629079D01*
%TD*%
M02*
